# xmcd CD database file
#
# Track frame offsets:
#	150
#	18413
#	39574
#	56606
#	77196
#	90446
#	112281
#	145316
#	162744
#	180913
#
# Disc length: 2775 seconds
#
# Revision: 1
# Processed by: cddbd v1.5.2PL0 Copyright (c) Steve Scherf et al.
# Submitted via: CDex 1.51
#
DISCID=830ad50a
DTITLE=Quantic Presenta Flowering Inferno - Death of The Revolution
DYEAR=2008
DGENRE=Jazz
TTITLE0=Death of The Revolution
TTITLE1=Mi Chocolatina
TTITLE2=Make Dub Not War
TTITLE3=Cuidad Del Swing
TTITLE4=Westboun D Train
TTITLE5=Alegria En Bella Vista
TTITLE6=Dub Del Pacifico
TTITLE7=Cuidad Del Swing (Version)
TTITLE8=Alegria En Bella Vista (Version)
TTITLE9=Juanita Bonita
EXTD=YEAR: 2008
EXTT0=
EXTT1=
EXTT2=
EXTT3=
EXTT4=
EXTT5=
EXTT6=
EXTT7=
EXTT8=
EXTT9=
PLAYORDER=
